<mxfile host="app.diagrams.net" modified="2021-04-30T23:38:19.247Z" agent="5.0 (Macintosh; Intel Mac OS X 11_2_3) AppleWebKit/537.36 (KHTML, like Gecko) Chrome/89.0.4389.90 Safari/537.36" etag="CltL52Krd6WupfeR5PxJ" version="14.6.9" type="github">
  <diagram id="uHsP9dGYsFM0qalL6mqU" name="Page-1">
    <mxGraphModel dx="946" dy="589" grid="1" gridSize="10" guides="1" tooltips="1" connect="1" arrows="1" fold="1" page="1" pageScale="1" pageWidth="827" pageHeight="1169" math="0" shadow="0">
      <root>
        <mxCell id="0" />
        <mxCell id="1" parent="0" />
        <mxCell id="G58wGOxVRkuHDq5vF4F3-3" value="" style="edgeStyle=orthogonalEdgeStyle;rounded=0;orthogonalLoop=1;jettySize=auto;html=1;" parent="1" source="G58wGOxVRkuHDq5vF4F3-1" target="G58wGOxVRkuHDq5vF4F3-2" edge="1">
          <mxGeometry relative="1" as="geometry" />
        </mxCell>
        <mxCell id="G58wGOxVRkuHDq5vF4F3-1" value="Beginning" style="ellipse;whiteSpace=wrap;html=1;" parent="1" vertex="1">
          <mxGeometry x="320" y="20" width="170" height="50" as="geometry" />
        </mxCell>
        <mxCell id="G58wGOxVRkuHDq5vF4F3-5" style="edgeStyle=orthogonalEdgeStyle;rounded=0;orthogonalLoop=1;jettySize=auto;html=1;entryX=0.5;entryY=0;entryDx=0;entryDy=0;" parent="1" source="G58wGOxVRkuHDq5vF4F3-2" target="G58wGOxVRkuHDq5vF4F3-4" edge="1">
          <mxGeometry relative="1" as="geometry" />
        </mxCell>
        <mxCell id="G58wGOxVRkuHDq5vF4F3-2" value="Output&lt;br&gt;Please enter two numbers x, y" style="shape=parallelogram;perimeter=parallelogramPerimeter;whiteSpace=wrap;html=1;fixedSize=1;" parent="1" vertex="1">
          <mxGeometry x="345" y="130" width="120" height="60" as="geometry" />
        </mxCell>
        <mxCell id="G58wGOxVRkuHDq5vF4F3-18" style="edgeStyle=orthogonalEdgeStyle;rounded=0;orthogonalLoop=1;jettySize=auto;html=1;entryX=0.5;entryY=0;entryDx=0;entryDy=0;" parent="1" source="G58wGOxVRkuHDq5vF4F3-4" target="G58wGOxVRkuHDq5vF4F3-6" edge="1">
          <mxGeometry relative="1" as="geometry" />
        </mxCell>
        <mxCell id="G58wGOxVRkuHDq5vF4F3-4" value="Input&lt;br&gt;x, y" style="shape=parallelogram;perimeter=parallelogramPerimeter;whiteSpace=wrap;html=1;fixedSize=1;" parent="1" vertex="1">
          <mxGeometry x="345" y="230" width="120" height="60" as="geometry" />
        </mxCell>
        <mxCell id="G58wGOxVRkuHDq5vF4F3-15" style="edgeStyle=orthogonalEdgeStyle;rounded=0;orthogonalLoop=1;jettySize=auto;html=1;entryX=0.5;entryY=0;entryDx=0;entryDy=0;" parent="1" source="G58wGOxVRkuHDq5vF4F3-6" target="G58wGOxVRkuHDq5vF4F3-9" edge="1">
          <mxGeometry relative="1" as="geometry" />
        </mxCell>
        <mxCell id="G58wGOxVRkuHDq5vF4F3-16" style="edgeStyle=orthogonalEdgeStyle;rounded=0;orthogonalLoop=1;jettySize=auto;html=1;entryX=0.5;entryY=0;entryDx=0;entryDy=0;" parent="1" source="G58wGOxVRkuHDq5vF4F3-6" target="G58wGOxVRkuHDq5vF4F3-11" edge="1">
          <mxGeometry relative="1" as="geometry" />
        </mxCell>
        <mxCell id="G58wGOxVRkuHDq5vF4F3-6" value="b &amp;lt; &amp;gt; 0" style="rhombus;whiteSpace=wrap;html=1;" parent="1" vertex="1">
          <mxGeometry x="330" y="340" width="150" height="130" as="geometry" />
        </mxCell>
        <mxCell id="G58wGOxVRkuHDq5vF4F3-7" value="YES" style="text;html=1;align=center;verticalAlign=middle;resizable=0;points=[];autosize=1;strokeColor=none;" parent="1" vertex="1">
          <mxGeometry x="440" y="350" width="40" height="20" as="geometry" />
        </mxCell>
        <mxCell id="G58wGOxVRkuHDq5vF4F3-8" value="NO" style="text;html=1;align=center;verticalAlign=middle;resizable=0;points=[];autosize=1;strokeColor=none;" parent="1" vertex="1">
          <mxGeometry x="335" y="350" width="30" height="20" as="geometry" />
        </mxCell>
        <mxCell id="G58wGOxVRkuHDq5vF4F3-17" style="edgeStyle=orthogonalEdgeStyle;rounded=0;orthogonalLoop=1;jettySize=auto;html=1;entryX=0.5;entryY=0;entryDx=0;entryDy=0;" parent="1" source="G58wGOxVRkuHDq5vF4F3-9" target="G58wGOxVRkuHDq5vF4F3-10" edge="1">
          <mxGeometry relative="1" as="geometry" />
        </mxCell>
        <mxCell id="G58wGOxVRkuHDq5vF4F3-9" value="c = x / y" style="rounded=0;whiteSpace=wrap;html=1;" parent="1" vertex="1">
          <mxGeometry x="500" y="490" width="120" height="60" as="geometry" />
        </mxCell>
        <mxCell id="G58wGOxVRkuHDq5vF4F3-13" style="edgeStyle=orthogonalEdgeStyle;rounded=0;orthogonalLoop=1;jettySize=auto;html=1;entryX=0.5;entryY=0;entryDx=0;entryDy=0;" parent="1" source="G58wGOxVRkuHDq5vF4F3-10" target="G58wGOxVRkuHDq5vF4F3-12" edge="1">
          <mxGeometry relative="1" as="geometry" />
        </mxCell>
        <mxCell id="G58wGOxVRkuHDq5vF4F3-10" value="Output&lt;br&gt;c =" style="shape=parallelogram;perimeter=parallelogramPerimeter;whiteSpace=wrap;html=1;fixedSize=1;" parent="1" vertex="1">
          <mxGeometry x="500" y="600" width="120" height="60" as="geometry" />
        </mxCell>
        <mxCell id="G58wGOxVRkuHDq5vF4F3-14" style="edgeStyle=orthogonalEdgeStyle;rounded=0;orthogonalLoop=1;jettySize=auto;html=1;entryX=0.5;entryY=0;entryDx=0;entryDy=0;" parent="1" source="G58wGOxVRkuHDq5vF4F3-11" target="G58wGOxVRkuHDq5vF4F3-12" edge="1">
          <mxGeometry relative="1" as="geometry" />
        </mxCell>
        <mxCell id="G58wGOxVRkuHDq5vF4F3-11" value="Output&lt;br&gt;c = undefined" style="shape=parallelogram;perimeter=parallelogramPerimeter;whiteSpace=wrap;html=1;fixedSize=1;" parent="1" vertex="1">
          <mxGeometry x="180" y="480" width="120" height="60" as="geometry" />
        </mxCell>
        <mxCell id="G58wGOxVRkuHDq5vF4F3-12" value="END" style="ellipse;whiteSpace=wrap;html=1;" parent="1" vertex="1">
          <mxGeometry x="320" y="760" width="170" height="50" as="geometry" />
        </mxCell>
      </root>
    </mxGraphModel>
  </diagram>
</mxfile>
